<svg version="1.0" xmlns="http://www.w3.org/2000/svg" width="933.33" height="933.33" viewBox="0 0 700 700"><path d="M243.1 158.1c-17.1 3.4-32.6 14.8-40.5 29.8-7.7 14.7-7 .2-7.3 159.6-.2 93.1.1 144.6.7 147.5 5.5 24.3 24.7 43 48.4 47 4.1.7 70.6 1 207.1.8l201-.3 7.4-2.7c19.7-7.2 34.4-23.7 38.6-43.3 1.3-6 1.5-27.3 1.4-147.5 0-131.9-.1-140.9-1.8-147-5.6-20.3-18.7-34.7-38.3-41.8l-7.3-2.7-202.5-.1c-111.5-.1-204.5.2-206.9.7zm14 60.2c1.3.7 6.5 3.9 11.4 7.1 23.8 15.7 68.9 44.7 88.3 56.9 5.9 3.7 13.6 8.6 17.2 10.9 14.3 9.2 55 33.8 63.3 38.3 6.6 3.5 9.6 4.6 11.6 4.2 4.8-1 53.7-30.1 89.3-53.2 4.3-2.7 11.3-7.2 15.5-9.9 4.3-2.8 25.4-16.4 46.9-30.3 21.5-13.9 39.3-25.3 39.6-25.3.4 0 .3 47.2-.1 49.2 0 .5-.7.8-1.5.8-1.1 0-22.9 9.1-38.1 15.9-20.6 9.4-56.9 28.4-70.5 37.1-2.5 1.6-5.8 3.6-7.3 4.4-5.3 2.9-23.9 16.1-32.8 23.3-10.9 9-20.2 18-26.6 25.8-5.1 6.2-12.3 17.5-12.3 19.3 0 .5-.6 1.4-1.3 2-1 .8-1.6.3-2.7-2.1-6.9-15.8-35.6-42.9-66.5-62.9-14.2-9.1-23.4-14.8-24-14.8-.3 0-2.2-1-4.3-2.3-7.3-4.6-52-27.7-53.5-27.7-.3 0-5.1-2.2-10.8-4.8-5.7-2.7-15.6-7-21.9-9.6l-11.5-4.8v-24.4c0-13.4 0-24.4.1-24.4s1.2.6 2.5 1.3zM82.7 202.7c-12.2 3.2-20.5 13.7-21.5 27.4-.4 5.7-.1 7.5 2.3 12.8 3.4 7.4 9.4 13.2 16.9 16 4.6 1.8 7.9 2 37.4 2 21.3.1 32.2-.2 32.3-.9.1-.5.2-1.6.3-2.3.4-2.1-2.6-6.4-6.8-9.8-7.4-6-12.4-11.5-13.1-14.2-1.5-5.7.5-8.7 12.7-18.5 7.3-5.9 9.6-9.3 8.6-12.4-.6-1.8-61.9-1.9-69.1-.1zM51.3 321c-4.8 1.1-11.8 5.6-15.7 10.1-4.4 5.2-6.6 11.6-6.6 19.5 0 11.8 8.9 23.9 20.3 27.4 6 1.9 99.3 2.1 100.9.3 1.8-2.2-1.1-7-7.6-12.6-9.1-7.8-11.5-10.5-12.2-14.2-1-5.5 1.2-8.6 12.2-17 6.5-5 9.4-8.5 9.4-11.5v-2.8l-48.7.1c-26.9 0-50.2.3-52 .7zm-32 120.2c-6.1 2.3-13.2 8.7-16.4 14.9-2.7 5.4-3.4 16.2-1.4 21.9 3.2 9.1 12.1 17.6 20.5 19.6 6 1.4 126.9 1.2 128.1-.2 1.9-2.3-1.6-7.8-8.9-13.8-11-9-13.5-14.6-9.1-20.7 1.1-1.6 5.5-5.6 9.8-8.9 7.8-6 10.9-10.4 9.7-13.5-.5-1.4-7.5-1.6-63.8-1.4-60.3.1-63.5.2-68.5 2.1z"/></svg>