<svg viewBox="0 0 500 500" xmlns="http://www.w3.org/2000/svg"><rect width="500" height="500" rx="100" ry="100" fill="#064e3b"/><path fill="#fff" d="M419.1 129H177.13a37.33 37.33 0 0 0-37.25 37.24v167.52A37.26 37.26 0 0 0 177.13 371H419.1a37.1 37.1 0 0 0 37.25-37.22V166.24A37.23 37.23 0 0 0 419.1 129m0 68.3s-103.75 39.24-119.94 82.01c-19.46-42.68-122.06-81.98-122.06-81.98v-31.09s114.67 75.1 121.03 75.07c6.33.18 120.97-75.07 120.97-75.07v31.09-.03ZM74.38 156.93h38.16c3.45 6.78-13.3 10.83-13.48 18.45-.16 7.53 16.12 12.14 12.54 18.77H74.38a18.68 18.68 0 0 1-18.59-18.6 18.68 18.68 0 0 1 18.59-18.62M36.26 305.9h76.23c3.45 6.78-13.32 10.81-13.48 18.43-.15 7.55 16.13 12.16 12.55 18.81h-75.3a18.68 18.68 0 0 1-18.6-18.63 18.68 18.68 0 0 1 18.6-18.61m17.98-74.62h58.32c3.45 6.78-13.3 10.81-13.48 18.43-.16 7.52 16.12 12.14 12.54 18.79H54.24a18.68 18.68 0 0 1-18.58-18.61 18.68 18.68 0 0 1 18.59-18.61"/></svg>